<svg width="17" height="14" viewBox="0 0 17 14" fill="none" xmlns="http://www.w3.org/2000/svg">
<path d="M16.8099 2.10651H16.1565C15.9139 2.10651 15.5708 2.45072 15.5708 2.67109V10.6583C15.5708 10.8789 15.9139 11.1796 16.1565 11.1796H16.8099V13.0755H10.8897V11.1796H12.1288V2.78361H12.0681L9.1745 13.0755H6.93424L4.07797 2.78361H4.00569V11.1796H5.24481V13.0755H0.28833V11.1796H0.923003C1.18438 11.1796 1.52745 10.8789 1.52745 10.6583V2.67109C1.52745 2.45072 1.18438 2.10651 0.923003 2.10651H0.28833V0.210635H6.48619L8.52106 7.65872H8.57704L10.6307 0.210635H16.8099V2.10651Z" fill="#757E9A"/>
</svg>
