<svg width="15" height="13" viewBox="0 0 15 13" fill="none" xmlns="http://www.w3.org/2000/svg">
<path d="M5.55291 12.0232C5.11479 12.0232 5.18924 11.8651 5.03813 11.4663L3.74976 7.41341L13.6671 1.78979" fill="#9399AB"/>
<path d="M5.55322 12.0232C5.89131 12.0232 6.04069 11.8754 6.22941 11.7L8.03256 10.0241L5.78335 8.72772" fill="#70788E"/>
<path d="M5.78294 8.72803L11.233 12.5768C11.8549 12.9048 12.3038 12.7349 12.4587 12.0249L14.6771 2.03243C14.9042 1.16203 14.33 0.76726 13.735 1.02544L0.708373 5.82663C-0.180818 6.16753 -0.175634 6.6417 0.546292 6.85298L3.88923 7.85029L11.6285 3.18332C11.9938 2.97155 12.3291 3.0854 12.0539 3.31888" fill="#B6BAC7"/>
</svg>
