<svg width="17" height="14" viewBox="0 0 17 14" fill="none" xmlns="http://www.w3.org/2000/svg">
<path fill-rule="evenodd" clip-rule="evenodd" d="M16.8079 1.84044C16.2 2.11764 15.5469 2.3042 14.8615 2.38901C15.5611 1.9581 16.0985 1.27597 16.3515 0.463451C15.6966 0.86229 14.9712 1.15194 14.1991 1.30803C13.581 0.631997 12.6999 0.210632 11.7251 0.210632C9.85349 0.210632 8.33557 1.76889 8.33557 3.6902C8.33557 3.96316 8.36525 4.2287 8.42334 4.48337C5.60589 4.33762 3.10803 2.95162 1.43651 0.847449C1.1448 1.36157 0.977647 1.9589 0.977647 2.59651C0.977647 3.80362 1.57604 4.86856 2.48524 5.49306C1.93022 5.47451 1.40721 5.31815 0.950283 5.05712V5.10084C0.950283 6.78763 2.1197 8.1935 3.6686 8.5135C3.38464 8.593 3.08518 8.6354 2.77721 8.6354C2.55882 8.6354 2.3461 8.6142 2.13958 8.57313C2.57069 9.95594 3.82272 10.9619 5.30579 10.99C4.14566 11.9228 2.68402 12.4794 1.09536 12.4794C0.821724 12.4794 0.552474 12.4635 0.287354 12.4309C1.78721 13.4183 3.56921 13.9944 5.48327 13.9944C11.7176 13.9944 15.1271 8.69158 15.1271 4.09368C15.1271 3.94262 15.1238 3.79289 15.1173 3.64316C15.7797 3.1529 16.3546 2.5394 16.809 1.8411" fill="#6188FF"/>
</svg>
